<?xml version="1.0" standalone="no"?>
<!DOCTYPE svg PUBLIC "-//W3C//DTD SVG 20010904//EN"
 "http://www.w3.org/TR/2001/REC-SVG-20010904/DTD/svg10.dtd">
<svg version="1.0" xmlns="http://www.w3.org/2000/svg"
 width="552.000000pt" height="628.000000pt" viewBox="0 0 552.000000 628.000000"
 preserveAspectRatio="xMidYMid meet">

<g transform="translate(0.000000,628.000000) scale(0.100000,-0.100000)"
fill="rgba(0, 0, 0, 0.2)" stroke="none">
<path d="M4750 6021 c-255 -69 -467 -202 -580 -366 -84 -122 -155 -306 -189
-492 -33 -180 -41 -404 -41 -1190 l0 -753 -1160 0 -1160 0 0 833 c0 897 -1
879 53 963 73 114 181 175 320 182 l87 4 0 29 0 29 -655 0 -655 0 0 -29 0 -29
88 -4 c66 -3 100 -10 144 -30 64 -30 139 -94 175 -151 56 -89 54 6 50 -1998
-3 -1839 -3 -1844 -24 -1977 -31 -184 -66 -309 -118 -420 -76 -160 -191 -294
-325 -380 -59 -37 -59 -37 -41 -60 l17 -24 65 17 c205 52 422 168 521 281 151
170 239 399 279 721 7 54 13 433 16 981 l5 892 1159 0 1159 0 0 -798 c0 -870
1 -850 -57 -949 -33 -57 -105 -120 -173 -151 -42 -20 -76 -27 -142 -30 l-88
-4 0 -29 0 -29 650 0 650 0 0 30 0 30 -61 0 c-143 0 -261 64 -335 182 -58 91
-55 -19 -51 1940 3 1935 1 1855 52 2074 65 283 206 501 407 632 63 41 66 45
56 68 -13 28 -12 28 -98 5z"/>
</g>
</svg>
